<?xml version="1.0" encoding="UTF-8"?>
<svg id="Layer_2" data-name="Layer 2" xmlns="http://www.w3.org/2000/svg" viewBox="0 0 618.6 87.95">
  <defs>
    <style>
      .cls-1 {
        fill: #f07a22;
      }

      .cls-2 {
        fill: #fff;
      }

      .cls-3 {
        fill: #ce6728;
      }

      .cls-4 {
        fill: #0d4459;
      }

      .cls-5 {
        fill: none;
        stroke: #fff;
        stroke-miterlimit: 10;
      }
    </style>
  </defs>
  <g id="Layer_1-2" data-name="Layer 1">
    <g>
      <path class="cls-4" d="M133.83,84.29c-4.94,0-8.89-1.06-11.85-3.17-2.96-2.11-5.1-5.18-6.44-9.21-1.33-4.03-2-8.87-2-14.53V30.95c0-5.78,.6-10.71,1.8-14.77,1.2-4.06,3.35-7.17,6.44-9.31,3.09-2.15,7.39-3.22,12.92-3.22,4.94,0,8.92,.83,11.94,2.49,3.02,1.66,5.22,4.19,6.58,7.6,1.37,3.41,2.05,7.72,2.05,12.92v2.92h-10.34v-2.44c0-3.44-.23-6.25-.68-8.43-.46-2.18-1.38-3.8-2.78-4.88-1.4-1.07-3.59-1.61-6.58-1.61-3.25,0-5.61,.75-7.07,2.24-1.46,1.5-2.37,3.53-2.73,6.09-.36,2.57-.54,5.48-.54,8.73v29.25c0,3.77,.28,6.92,.83,9.46,.55,2.54,1.61,4.42,3.17,5.66,1.56,1.24,3.77,1.85,6.63,1.85s5.07-.68,6.63-2.05,2.63-3.38,3.22-6.04c.58-2.66,.88-5.98,.88-9.95v-5.46h-10.04v-7.8h19.99v39.1h-6.92l-1.07-9.07c-1.04,2.92-2.67,5.33-4.88,7.21-2.21,1.88-5.27,2.83-9.17,2.83Z"/>
      <path class="cls-4" d="M187.55,84.19c-5.72,0-10.11-1.14-13.16-3.41-3.06-2.27-5.14-5.47-6.24-9.6-1.11-4.13-1.66-8.95-1.66-14.48V4.34h10.53V57.18c0,3.38,.23,6.47,.68,9.26,.45,2.79,1.45,5.01,2.97,6.63,1.53,1.62,3.82,2.44,6.87,2.44s5.43-.81,6.92-2.44c1.49-1.62,2.47-3.83,2.93-6.63,.45-2.79,.68-5.88,.68-9.26V4.34h10.43V56.69c0,5.53-.55,10.35-1.66,14.48-1.11,4.13-3.17,7.33-6.19,9.6-3.02,2.28-7.4,3.41-13.11,3.41Z"/>
      <path class="cls-4" d="M220.7,83.31V4.34h10.82V83.31h-10.82Z"/>
      <path class="cls-4" d="M244.3,83.31V4.34h17.16c5.85,0,10.48,.89,13.89,2.68,3.41,1.79,5.85,4.47,7.31,8.04,1.46,3.58,2.19,8.03,2.19,13.36v29.05c0,5.59-.73,10.3-2.19,14.14-1.46,3.84-3.84,6.74-7.12,8.73-3.28,1.98-7.69,2.97-13.21,2.97h-18.04Zm11.02-7.9h6.24c4.03,0,6.89-.78,8.58-2.34,1.69-1.56,2.71-3.83,3.07-6.83,.36-2.99,.54-6.6,.54-10.82V29.78c0-4.09-.26-7.41-.78-9.95-.52-2.54-1.66-4.39-3.41-5.56s-4.52-1.75-8.29-1.75h-5.95v62.89Z"/>
      <path class="cls-4" d="M295.68,83.31V4.34h30.61V12.53h-19.6v26.13h15.89v7.8h-15.89v28.96h19.79v7.9h-30.81Z"/>
      <path class="cls-1" d="M353.98,84.19c-4.55,0-8.34-.98-11.36-2.93-3.02-1.95-5.31-4.65-6.87-8.09-1.56-3.44-2.47-7.44-2.73-11.99l9.75-2.63c.2,2.79,.63,5.49,1.32,8.09,.68,2.6,1.8,4.73,3.36,6.39s3.74,2.49,6.53,2.49,5.02-.8,6.48-2.39c1.46-1.59,2.19-3.88,2.19-6.87,0-3.57-.81-6.45-2.44-8.63-1.63-2.18-3.67-4.37-6.14-6.58l-13.26-11.7c-2.6-2.27-4.52-4.76-5.75-7.46-1.24-2.7-1.85-6.03-1.85-9.99,0-5.78,1.66-10.27,4.97-13.46,3.31-3.18,7.83-4.78,13.55-4.78,3.12,0,5.87,.41,8.24,1.22,2.37,.81,4.35,2.06,5.95,3.75,1.59,1.69,2.86,3.82,3.8,6.39,.94,2.57,1.58,5.57,1.9,9.02l-9.36,2.54c-.19-2.6-.58-4.99-1.17-7.17-.58-2.18-1.61-3.93-3.07-5.26-1.46-1.33-3.56-2-6.29-2s-4.86,.73-6.39,2.19c-1.53,1.46-2.29,3.62-2.29,6.48,0,2.41,.4,4.39,1.22,5.95,.81,1.56,2.13,3.15,3.95,4.78l13.36,11.7c2.99,2.6,5.62,5.7,7.9,9.31,2.27,3.61,3.41,7.88,3.41,12.82,0,3.9-.81,7.26-2.44,10.09-1.63,2.83-3.85,4.99-6.68,6.48-2.83,1.5-6.09,2.24-9.8,2.24Z"/>
      <path class="cls-1" d="M401.66,84.19c-5.33,0-9.59-1.04-12.77-3.12-3.19-2.08-5.46-5.05-6.82-8.92-1.37-3.87-2.05-8.4-2.05-13.6V28.61c0-5.2,.7-9.67,2.1-13.41,1.4-3.74,3.67-6.6,6.82-8.58,3.15-1.98,7.39-2.97,12.72-2.97s9.55,1.01,12.67,3.02c3.12,2.02,5.38,4.88,6.78,8.58,1.4,3.71,2.1,8.16,2.1,13.36v30.03c0,5.13-.7,9.62-2.1,13.45-1.4,3.84-3.66,6.81-6.78,8.92-3.12,2.11-7.35,3.17-12.67,3.17Zm0-8.68c2.92,0,5.13-.6,6.63-1.8,1.49-1.2,2.5-2.89,3.02-5.07,.52-2.18,.78-4.73,.78-7.65V26.37c0-2.93-.26-5.44-.78-7.56-.52-2.11-1.53-3.74-3.02-4.88-1.5-1.14-3.71-1.71-6.63-1.71s-5.15,.57-6.68,1.71c-1.53,1.14-2.55,2.76-3.07,4.88-.52,2.11-.78,4.63-.78,7.56V60.98c0,2.92,.26,5.48,.78,7.65,.52,2.18,1.54,3.87,3.07,5.07,1.53,1.2,3.75,1.8,6.68,1.8Z"/>
      <path class="cls-1" d="M454.41,84.19c-5.72,0-10.11-1.14-13.16-3.41-3.06-2.27-5.14-5.47-6.24-9.6-1.11-4.13-1.66-8.95-1.66-14.48V4.34h10.53V57.18c0,3.38,.23,6.47,.68,9.26,.45,2.79,1.45,5.01,2.97,6.63,1.53,1.62,3.82,2.44,6.87,2.44s5.43-.81,6.92-2.44c1.49-1.62,2.47-3.83,2.93-6.63,.45-2.79,.68-5.88,.68-9.26V4.34h10.43V56.69c0,5.53-.55,10.35-1.66,14.48-1.11,4.13-3.17,7.33-6.19,9.6-3.02,2.28-7.4,3.41-13.11,3.41Z"/>
      <path class="cls-1" d="M486.97,83.31V4.34h15.89c5.26,0,9.62,.7,13.06,2.1,3.44,1.4,6,3.64,7.65,6.73,1.66,3.09,2.49,7.13,2.49,12.14,0,3.06-.33,5.83-.97,8.34-.65,2.5-1.69,4.62-3.12,6.34-1.43,1.72-3.31,2.97-5.66,3.75l11.21,39.58h-10.63l-10.33-37.05h-8.58v37.05h-11.02Zm11.02-44.95h4.19c3.12,0,5.65-.39,7.6-1.17,1.95-.78,3.38-2.11,4.29-4,.91-1.88,1.36-4.52,1.36-7.9,0-4.61-.85-7.95-2.53-9.99-1.69-2.05-5.04-3.07-10.04-3.07h-4.88v26.13Z"/>
      <path class="cls-1" d="M557.37,84.19c-5.59,0-9.93-1.17-13.02-3.51-3.09-2.34-5.23-5.49-6.44-9.46-1.2-3.96-1.8-8.38-1.8-13.26V30.08c0-5.33,.6-9.98,1.8-13.94,1.2-3.96,3.35-7.04,6.44-9.21,3.09-2.18,7.42-3.27,13.02-3.27,4.94,0,8.86,.91,11.75,2.73,2.89,1.82,4.97,4.42,6.24,7.8s1.9,7.44,1.9,12.19v6.24h-10.43v-5.56c0-2.92-.15-5.51-.44-7.75s-1.09-3.98-2.39-5.22c-1.3-1.23-3.48-1.85-6.53-1.85s-5.4,.67-6.82,2c-1.43,1.33-2.36,3.22-2.78,5.66-.42,2.44-.63,5.28-.63,8.53v31.3c0,3.96,.32,7.1,.98,9.41,.65,2.31,1.72,3.95,3.22,4.92,1.49,.98,3.51,1.46,6.04,1.46,2.99,0,5.13-.67,6.44-2,1.3-1.33,2.11-3.17,2.44-5.51,.32-2.34,.49-5.07,.49-8.19v-5.85h10.43v5.85c0,4.81-.58,9.05-1.75,12.72-1.17,3.67-3.19,6.53-6.04,8.58-2.86,2.05-6.89,3.07-12.09,3.07Z"/>
      <path class="cls-1" d="M587.79,83.31V4.34h30.61V12.53h-19.6v26.13h15.89v7.8h-15.89v28.96h19.79v7.9h-30.81Z"/>
    </g>
    <g>
      <g>
        <path class="cls-3" d="M12.06,74.2c-.42-.47-.86-.93-1.28-1.4-.01-.02-.03-.03-.05-.05-.27-.31-.51-.64-.77-.96-.12-.16-.24-.31-.35-.48-.29-.32-.58-.65-.84-.99-.02-.01-.03-.02-.03-.04-.23-.27-.43-.56-.62-.85-.15-.23-.28-.46-.4-.71-.13-.15-.26-.29-.37-.45-.13-.19-.26-.38-.38-.57-.17-.25-.33-.5-.48-.75-.01-.01-.01-.02-.01-.02-.83-1.35-1.56-2.76-2.27-4.17-.02-.04-.04-.07-.05-.1-.14-.28-.28-.55-.42-.83-1.42,1.18-2.16,2.77-2.7,4.48-.54,1.74-.64,3.52-.34,5.32,3.72,1.18,7.48,2.09,11.35,2.57h.01Z"/>
        <path class="cls-5" d="M12.06,74.2c-.42-.47-.86-.93-1.28-1.4-.01-.02-.03-.03-.05-.05-.27-.31-.51-.64-.77-.96-.12-.16-.24-.31-.35-.48-.29-.32-.58-.65-.84-.99-.02-.01-.03-.02-.03-.04-.23-.27-.43-.56-.62-.85-.15-.23-.28-.46-.4-.71-.13-.15-.26-.29-.37-.45-.13-.19-.26-.38-.38-.57-.17-.25-.33-.5-.48-.75-.01-.01-.01-.02-.01-.02-.83-1.35-1.56-2.76-2.27-4.17-.02-.04-.04-.07-.05-.1-.14-.28-.28-.55-.42-.83-1.42,1.18-2.16,2.77-2.7,4.48-.54,1.74-.64,3.52-.34,5.32,3.72,1.18,7.48,2.09,11.35,2.57h.01Z"/>
      </g>
      <g>
        <path class="cls-3" d="M88,18.53c-.27-.23-.12-.56-.18-.84-1.67-.25-3.22-.96-4.87-1.27-.47-.09-.93-.19-1.39-.3-.47-.1-.94-.21-1.4-.3-.33-.07-.66-.13-.99-.19-.04,0-.09-.01-.13-.02-.04-.01-.09-.01-.13-.02-.23-.03-.46-.06-.7-.08-.18-.02-.37-.03-.55-.04-.04-.01-.07-.01-.11-.01h-.03c-.06-.01-.13-.01-.19-.01,.96,1.24,1.99,2.42,2.8,3.76,.62,.73,1.12,1.54,1.52,2.41,1.18,1.78,2.04,3.72,2.89,5.67,.06,.13,.14,.24,.22,.36,.03-.02,.06-.05,.09-.07,.69-.54,1.17-1.26,1.62-2.01,.8-1.33,1.16-2.81,1.53-4.29v-2.75Z"/>
        <path class="cls-5" d="M88,18.53c-.27-.23-.12-.56-.18-.84-1.67-.25-3.22-.96-4.87-1.27-.47-.09-.93-.19-1.39-.3-.47-.1-.94-.21-1.4-.3-.33-.07-.66-.13-.99-.19-.04,0-.09-.01-.13-.02-.04-.01-.09-.01-.13-.02-.23-.03-.46-.06-.7-.08-.18-.02-.37-.03-.55-.04-.04-.01-.07-.01-.11-.01h-.03c-.06-.01-.13-.01-.19-.01,.96,1.24,1.99,2.42,2.8,3.76,.62,.73,1.12,1.54,1.52,2.41,1.18,1.78,2.04,3.72,2.89,5.67,.06,.13,.14,.24,.22,.36,.03-.02,.06-.05,.09-.07,.69-.54,1.17-1.26,1.62-2.01,.8-1.33,1.16-2.81,1.53-4.29v-2.75Z"/>
      </g>
      <path class="cls-4" d="M6.49,66.95c.64,1.03,1.01,1.52,1.23,1.77,3.62-.85,7.28-1.56,10.97-2.07,1.49-.2,2.97-.44,4.46-.63,.49-.07,.57-.22,.45-.73-.83-3.51-1.58-7.03-1.99-10.63-.31-2.72-.45-5.44-.6-8.17-.05-.78-.24-.99-1.02-.99-6.64,.03-13.28,.01-19.93,.01-.04-.52-.06-1.02-.06-1.53,0,6.68,1.49,13.01,4.16,18.68,0,.03,.03,.06,.05,.1,.67,1.43,1.44,2.82,2.27,4.17,0,0,0,.01,.01,.02Z"/>
      <path class="cls-4" d="M42.46,55.19v-8.58c.16-.32,.11-.7-.14-.95-.26-.26-.67-.32-.99-.14-5.52-.03-11.05-.06-16.57-.09-.1,.02-.24,.07-.38,.18-.38,.29-.47,.81-.48,1.35-.02,.94,.2,3.43,.64,6.74,1.08,6.16,1.9,10.66,2.03,11.27,.03,.14,.1,.44,.35,.59,.15,.09,.35,.1,.6,.05,1.77-.32,3.57-.29,5.35-.48,2.92-.31,5.87-.1,8.8-.34,.63-.05,.82-.21,.81-.84-.03-2.92-.01-5.84-.01-8.76Z"/>
      <path class="cls-4" d="M45.37,41.62c-.01,.64,.19,.83,.83,.82,2.8-.03,5.61-.01,8.41-.01s5.5-.03,8.25,.01c.7,.01,.94-.16,.93-.9-.02-1.91-.17-3.81-.33-5.71-.29-3.32-.81-6.6-1.51-9.85-.14-.63-.35-.81-.94-.75-1.87,.19-3.73,.41-5.6,.51-3.05,.16-6.1,.26-9.15,.34-.64,.02-.9,.13-.9,.85,.04,4.9,.03,9.79,.01,14.69Z"/>
      <path class="cls-4" d="M43.51,87.95l-3.08-.14m7.41-.1c1.35-.13,2.78-.27,2.78-.26,0,0-4.98,.48-4.98,.48,0,0,1.23-.12,2.2-.22Zm19.81-42.2c.55,.06,8.77,.11,20.31,.16-.8,21.19-16.59,38.53-37.07,41.75,.24-.23,.49-.46,.74-.69,.2-.19,.4-.38,.59-.58,.05-.04,.09-.08,.14-.13,.02-.01,.05-.03,.07-.06,1.72-1.47,3.96-3.71,6.05-6.79,.5-.74,1.77-2.67,3.23-6.19,0,.01,.01,.02,.01,.03,.52,.98,.86,2.03,1.22,3.08,.34,.24,.56,.17,.68-.24,.11-.37,.24-.74,.35-1.11,.35-1.92,.89-3.8,1.39-5.69h0c1.37,.19,2.75,.41,4.14,.64,3.07,.51,6.05,1.06,8.95,1.65,.32-.4,.64-.82,.97-1.26,.33-.44,.64-.88,.93-1.31-.19-.04-.39-.09-.59-.13-.19-.04-.37-.07-.56-.11l-13.11-2.38c1.21-4.84,2.42-9.67,3.63-14.51,.23-.94,.05-1.09-.87-.85-.75,.19-1.49,.37-2.25,.55-.02,.01-.05,.01-.07,.02,.06-.27,.1-.54,.12-.81,.02-.32,.04-.65,.06-.98v-.05c.02-1.12-.05-2.25,.13-3.36,.05-.28,.12-.44,.24-.54,.22-.17,.52-.13,.58-.12Zm-4.78,0c.7,0,.93,.18,.92,.91,0,.38,0,.76-.02,1.13,0,.03,0,.07-.01,.1-.04,1.39-.13,2.77-.29,4.16-.01,.14-.02,.27-.04,.4-2.6,.71-5.21,1.43-7.82,2.14-3.24,.88-6.48,1.74-9.73,2.61-.16,.05-.33,.06-.5,.08,0-3.51,.02-7.03-.01-10.55-.01-.73,.14-.99,.93-.98,5.52,.03,11.05,.03,16.57,0Zm-2.88,22.87c.07,.06,.12,.13,.13,.21-1.24,3.85-3.03,7.69-6.03,11.36-1.75,2.14-3.46,3.67-4.67,4.65-1.29,.62-2.65,1.1-4.04,1.49v-6.88c0-.13,0-.25,0-.38-.12-.06-.24-.11-.36-.17,.07-.05,.13-.09,.19-.14,4.64-2.88,8.89-6.26,12.75-10.13,.12-.15,.22-.34,.37-.46,.34-.28,.55-.91,1.04-.77,.49,.13,.47,.78,.62,1.22Zm-6.93-7.6c.52,.19,.54,.51,.15,.81-1.55,1.22-3.04,2.5-4.73,3.53-.79-.35-1.66-.12-2.48-.32-.38-.09-.63-.12-.62-.59,.03-2.07,.03-4.14,.05-6.21,2.58,.82,5.1,1.83,7.63,2.78Zm-16.62,22.24c2.01-.97,4.02-1.95,6.03-2.93-.01,1.72-.01,3.44-.01,5.15,0,1.08,.01,1.05-1,.78-1.83-.48-3.39-1.45-4.83-2.63-.1-.08-.13-.24-.19-.37Zm4.93-15.16c.62-.02,1.11,.05,1.29,.72-3.9,2.13-8.04,3.6-12.36,4.61-.24,.06-.49,.1-.75,.15-.58-1.37-1.16-2.73-1.64-4.13-.16-.46-.1-.62,.4-.73,.96-.21,1.94-.13,2.89-.21,1.45-.12,2.9-.2,4.35-.27,1.95-.09,3.88-.1,5.82-.14Zm-1.3,19.93c-.69-.1-1.39-.19-2.08-.29m-12.99-17.8c.44,1.41,.98,2.78,1.48,4.17-1.14,.41-2.35,.38-3.53,.5-3.09,.33-6.19,.27-9.28,.02-.54-.05-1.08-.12-1.61-.18h-.01c-.44-.46-.86-.92-1.27-1.4-.01-.02-.03-.03-.05-.05-.28-.28-.44-.51-.77-.96-.06-.08-.18-.25-.35-.48,2.77-.61,5.55-1.15,8.35-1.56,1.88-.28,3.75-.55,5.63-.84,.68-.1,1.17-.01,1.41,.78Z"/>
      <path class="cls-4" d="M24.75,14.27c.03-.11,.03-.23,.07-.33,.12-.24,.05-.65,.42-.68,.41-.04,.4,.4,.56,.65,.14,.21,.11,.51,.34,.67,.51-.35,.64-.93,.87-1.44,1.3-2.91,2.95-5.6,4.96-8.07,.72-.88,1.5-1.69,2.35-2.44,.84-.74,1.51-1.21,1.77-1.39,.48-.33,.9-.58,1.23-.77,.69-.09,1.38-.18,2.06-.26,.79-.06,1.59-.12,2.38-.18C18.5,1.18,0,20.41,0,43.96c0-.51,.02-1.01,.06-1.52,5.96-.01,11.91-.01,17.86-.01,.83-.01,1.66-.02,2.49,0,.39,.01,.56-.14,.57-.55,.04-1.19,.11-2.39,.17-3.58-.53,.12-1.05,.23-1.58,.35-.8,.18-.93,.06-.73-.73,.56-2.29,1.15-4.58,1.71-6.87,.51-2.1,1.01-4.2,1.51-6.3,.36-.96,.55-1.95,.77-2.94,.64-2.51,1.28-5.03,1.92-7.54Z"/>
      <path class="cls-4" d="M42.44,32.59c-.96,.24-1.93,.47-2.89,.73-5.17,1.38-10.33,2.77-15.49,4.16-.05,1.34-.09,2.67-.14,4.01-.06,.22-.11,.54,.05,.74,.18,.22,.52,.21,.62,.21,.38,0,16.35,0,17.16,0,.58,0,.72-.21,.72-.76-.03-3.03-.02-6.06-.03-9.09Z"/>
      <path class="cls-4" d="M42.66,11.34c-.33-.27-.19-.64-.19-.97-.02-2.63-.03-5.27,0-7.9,0-.66-.18-.75-.77-.61-3.22,.78-5.59,2.84-7.6,5.28-2.3,2.79-3.96,5.99-5.34,9.33-.33,.8-.43,1.72-1.05,2.39,.35,.97,.72,1.93,1.07,2.89,.24,.65,.56,.71,1.05,.2,.78-.83,1.55-1.67,2.38-2.46,3.2-3.08,6.73-5.74,10.45-8.15Z"/>
      <path class="cls-4" d="M42.47,26.95c.03-.68-.18-.9-.86-.87-1.21,.06-2.42-.08-3.61-.32-.85,.67-1.71,1.32-2.55,1.99-.49,.39-.55,.71,.13,.96,2.3,.83,4.59,1.68,6.89,2.52-.01-1.43-.04-2.86,0-4.28Z"/>
      <path class="cls-4" d="M48.62,8.07c1.32-.65,2.65-1.26,3.98-1.88-.54-1.2-1.63-1.85-2.65-2.53-1.37-.93-3-1.31-4.57-1.79,0,2.62,0,5.25-.01,7.87,1.09-.56,2.16-1.13,3.25-1.67Z"/>
      <path class="cls-4" d="M60.86,21.72c-.5-1.91-1.32-3.7-1.9-5.58-4.87,.97-9.46,2.68-13.79,5.11,.22,.15,.2,.38,.21,.61q.06,1.16,1.24,1.15c.08-.01,.17,0,.26-.01,1.85-.07,3.7-.01,5.55-.12,2.67-.16,5.34-.32,8-.55,.49-.04,.55-.16,.43-.61Z"/>
      <path class="cls-4" d="M45.85,0c.85,.03,1.74,.1,2.68,.19,.78,.08,1.53,.18,2.24,.29,.16,.15,.46,.41,.85,.73,1.79,1.48,2.49,1.99,3.45,3.03,.23,.25,.51,.47,.45,.87,1.75-.56,3.5-1.11,5.25-1.66,.1-.02,.19-.04,.29-.06-4.71-1.98-9.83-3.17-15.21-3.39Z"/>
      <path class="cls-4" d="M38.95,87.62c-.63-.29-1.3-.63-1.98-1.01-1.4-.78-2.6-1.62-3.61-2.41-1.25,.43-2.54,.7-3.72,1.32,1.08,.35,2.23,.69,3.46,1,2.09,.52,4.06,.87,5.85,1.1Z"/>
      <path class="cls-4" d="M88,43.96c0-5.79-1.12-11.32-3.15-16.38-1.78-4.45-4.27-8.53-7.33-12.12-.06-.01-.13-.01-.19-.01-1.11-.42-2.29-.42-3.43-.47-2.44-.11-4.89-.03-7.34-.03-.13,.01-.26,.08-.4,.12-1.44,.05-2.88,.17-4.28,.53,.72,1.95,1.44,3.89,2,5.9,.06,.24,.11,.5,.5,.43,.79-.15,5.03-.74,5.37-.79,.04,0,.27-.03,.57-.07,0,0,.24-.04,.49-.09,.04-.01,.1-.02,.2-.03,.03-.01,.07-.01,.1-.02,.42-.07,.85-.14,1.27-.21,.22-.04,.44-.08,.66-.12,.76-.14,1.53-.29,2.3-.44,.76-.15,1.53-.31,2.29-.47,.01,0,.02,0,.03-.01,.08-.02,1.12-.21,1.2-.23,.13-.02,1.36-.26,1.49-.29,.24,.36,.49,.73,.74,1.11,.29,.45,.56,.89,.81,1.32-.78,.17-1.77,.39-2.92,.65-.26,.06-.91,.2-1.75,.39-1.11,.25-2.61,.59-4.43,1.01h-.02c-.2,.05-.4,.09-.6,.14-2.26,.32-4.53,.65-6.8,.97-.13,.01-.34,.05-.46,.21-.15,.2-.08,.48-.06,.57,.33,1.52,.66,3.05,.9,4.6,.33,2.19,.55,4.39,.8,6.59,.18,1.62,.01,3.25,.26,4.87,.05,.36,.14,.58,.29,.7,.26,.21,.62,.16,.7,.15,.69-.08,8.77-.08,20.15-.06,.02,.39,.04,.93,.04,1.58,0,.85-.03,1.6-.03,1.6,0,0,0-.24,.02-.49,0-.37,.01-.74,.01-1.11Z"/>
      <g>
        <path class="cls-2" d="M22.83,21.81c-2.59-.27-5.16-.66-7.72-1.14-2.47-.47-4.94-.98-7.41-1.47-.59,.75-1.1,1.55-1.53,2.4,.85,.68,1.93,.63,2.9,.86,4.28,1.02,8.64,1.65,12.99,2.29,.36-.96,.55-1.95,.77-2.94Z"/>
        <path class="cls-2" d="M81.65,21.62c-7.19,1.63-8.85,2.01-8.85,2.02,0,.01,2.51-.54,4.98-1.11,1.45-.33,2.74-.64,3.87-.91Z"/>
        <path class="cls-2" d="M63.76,47.64c-.06,1.47-.16,2.85-.29,4.16,.16-1.39,.25-2.77,.29-4.16Z"/>
        <path class="cls-2" d="M66.64,50.56c-.02,.27-.06,.54-.12,.81,.02-.01,.05-.01,.07-.02,.02-.26,.04-.52,.05-.79Z"/>
      </g>
      <g>
        <path class="cls-1" d="M69.71,51.65c.23-.94,.05-1.09-.87-.85-.75,.19-1.49,.37-2.25,.55-.02,.01-.05,.01-.07,.02-.99,.4-2.05,.59-3.09,.83-2.6,.71-5.21,1.43-7.82,2.14-3.24,.88-6.48,1.74-9.73,2.61-.16,.05-.33,.06-.5,.08-.7,.35-.49,.66,.05,.96,2.58,.82,5.1,1.83,7.63,2.78,.52,.19,.54,.51,.15,.81-1.55,1.22-3.04,2.5-4.73,3.53-1.84,1.32-3.76,2.51-5.82,3.46-3.9,2.13-8.04,3.6-12.36,4.61-.18,.04-.47,.1-.75,.15-1.6,.31-3.94,.77-6.6,1.03-4.21,.41-7.62,.17-9.28,.02-.54-.05-1.08-.12-1.61-.18h-.01c-3.87-.48-7.63-1.39-11.35-2.57,.02,.14,.01,.29,.05,.43,1.16,4.38,3.63,7.92,7.18,10.65,2.48,1.91,5.12,3.19,7.91,3.85,3.78,.9,6.88,.4,8.99,.08,2.34-.36,4.47-1.02,4.81-1.12,1.08-.34,2.04-.68,3.72-1.32,1.02-.39,2.05-.79,3.08-1.19,2.01-.97,4.02-1.95,6.03-2.93,.85-.48,1.7-.96,2.55-1.43,.07-.05,.13-.09,.19-.14,4.64-2.88,8.89-6.26,12.75-10.13,.12-.15,.22-.34,.37-.46,.34-.28,.55-.91,1.04-.77,.49,.13,.47,.78,.62,1.22,.07,.06,.12,.13,.13,.21,.03,.05,.03,.1,.02,.15,.59,1.4,1.14,2.8,1.57,4.25,0,.01,.01,.02,.01,.03,.52,.98,.86,2.03,1.22,3.08,.34,.24,.56,.17,.68-.24,.11-.37,.24-.74,.35-1.11,.35-1.92,.89-3.8,1.39-5.69h0c.22-.92,.45-1.82,.68-2.73,.01-.05,.03-.11,.04-.16,1.21-4.84,2.42-9.67,3.63-14.51Z"/>
        <path class="cls-2" d="M20.23,87.57c-1.37,0-2.88-.13-4.51-.52-2.85-.68-5.57-2-8.1-3.94-3.72-2.86-6.2-6.54-7.36-10.92-.04-.13-.05-.26-.05-.37l-.12-.91,.76,.24c4.02,1.27,7.7,2.11,11.26,2.55l.51,.06c.36,.04,.73,.09,1.09,.12,3.06,.28,6.15,.28,9.19-.02,2.64-.26,5-.72,6.55-1.02l.26-.05c.18-.04,.35-.07,.47-.1,4.57-1.07,8.57-2.56,12.23-4.56,1.88-.87,3.75-1.98,5.77-3.43,1.34-.82,2.56-1.8,3.74-2.74,.31-.25,.61-.49,.92-.74l-1.72-.65c-1.91-.73-3.88-1.48-5.86-2.11-.3-.16-.86-.46-.84-1,.01-.53,.55-.79,.72-.88l.28-.06c.1-.01,.2-.02,.3-.05l2.61-.7c2.38-.64,4.76-1.27,7.14-1.92l8.45-2.28c.85-.19,1.64-.36,2.4-.67l.12-.04c.78-.19,1.51-.37,2.26-.55,.47-.12,1-.23,1.34,.11,.34,.34,.25,.87,.14,1.34h0s-3.81,15.24-3.81,15.24c-.18,.7-.35,1.39-.52,2.09l-.02,.08-.27,1c-.41,1.52-.83,3.09-1.12,4.66-.07,.24-.13,.44-.19,.63-.06,.18-.12,.36-.17,.54-.11,.36-.3,.6-.57,.69-.27,.09-.57,.03-.88-.19l-.13-.09-.15-.45c-.33-.96-.64-1.86-1.09-2.72l-.06-.18c-.45-1.52-1.03-2.94-1.53-4.14l-.06-.14v-.06s-.03-.05-.03-.05l-.07-.14c-.04-.13-.08-.28-.11-.42-.03-.16-.1-.46-.17-.47-.03,.02-.15,.17-.22,.26-.1,.14-.22,.29-.37,.41-.05,.04-.11,.12-.17,.21-.04,.06-.09,.12-.13,.18-3.91,3.93-8.23,7.36-12.88,10.24,0,0-.06,.05-.12,.09l-.09,.06c-.85,.47-1.7,.95-2.55,1.43l-.42,.21c-1.88,.92-3.76,1.83-5.64,2.74l-.54,.21c-.86,.33-1.72,.67-2.58,1-1.75,.67-2.7,1-3.75,1.33-.41,.13-2.55,.78-4.88,1.14-1.25,.19-2.83,.44-4.67,.44ZM1.35,72.36c1.15,3.98,3.46,7.33,6.88,9.96,2.41,1.85,5.01,3.12,7.72,3.76,3.64,.87,6.59,.41,8.73,.08,2.33-.36,4.41-.99,4.8-1.11,1.03-.32,1.96-.65,3.69-1.31,.85-.33,1.71-.66,2.57-.99l.5-.2c1.84-.89,3.72-1.81,5.6-2.72l.4-.19c.82-.47,1.68-.95,2.53-1.42,.04-.03,.08-.06,.11-.09,4.63-2.88,8.89-6.26,12.72-10.1,0,0,.02-.04,.06-.09,.09-.13,.2-.28,.36-.41,.06-.05,.14-.15,.21-.25,.22-.28,.62-.81,1.28-.61,.65,.17,.79,.81,.88,1.23,.02,.07,.03,.14,.05,.21,.09,.11,.14,.22,.16,.31,.02,.06,.04,.14,.05,.22,.51,1.21,1.08,2.64,1.54,4.17v.02c.44,.83,.76,1.71,1.05,2.57,.03-.09,.06-.17,.08-.26,.06-.18,.12-.37,.17-.55,.28-1.55,.71-3.14,1.12-4.68l.26-.99c.17-.72,.36-1.44,.54-2.16l.14-.56,.52-.04-.49-.1,3.64-14.54c.03-.14,.05-.24,.06-.32-.07,.01-.18,.03-.32,.07-.74,.19-1.46,.36-2.21,.54l-.1,.02c-.86,.34-1.7,.52-2.52,.7l-.6,.14-7.8,2.13c-2.38,.65-4.76,1.28-7.14,1.92l-2.59,.69c-.12,.04-.27,.06-.41,.08,.02,.01,.05,.03,.07,.04,1.91,.6,3.9,1.35,5.82,2.09l1.74,.66c.54,.2,.7,.52,.73,.76,.03,.19,0,.56-.46,.92-.32,.25-.64,.51-.96,.77-1.2,.97-2.45,1.96-3.81,2.79-2.04,1.46-3.97,2.61-5.87,3.49-3.71,2.03-7.8,3.55-12.46,4.64-.13,.03-.31,.06-.51,.1l-.26,.05c-1.58,.31-3.96,.77-6.65,1.04-3.09,.3-6.25,.31-9.37,.02-.37-.03-.75-.08-1.12-.12l-.5-.06c-3.4-.42-6.88-1.19-10.65-2.34Z"/>
      </g>
      <g>
        <path class="cls-1" d="M87.82,17.69c-1.67-.25-3.22-.96-4.87-1.27-.47-.09-.93-.19-1.39-.3-.47-.1-.94-.21-1.4-.3-.33-.07-.66-.13-.99-.19-.04,0-.09-.01-.13-.02-.04-.01-.09-.01-.13-.02-.23-.03-.46-.06-.7-.08-.19-.02-.37-.04-.55-.04-.11,0-.22-.01-.33-.02-1.78-.19-3.7-.34-5.74-.4-1.92-.06-3.73-.04-5.43,.02,0,0-1.15,.06-2.15,.15-4.88,.44-9.83,2.12-10.67,2.41-3.85,1.33-6.56,2.84-8.16,3.62-2.55,1.24-4.89,2.83-7.17,4.51-.85,.67-1.71,1.32-2.55,1.99-.49,.39-.55,.71,.13,.96,2.3,.83,4.59,1.68,6.89,2.52,.35,.29,1.12,.16,1.11,.71-.01,.57-.8,.34-1.14,.65-.96,.24-1.93,.47-2.89,.73-5.17,1.38-10.33,2.77-15.49,4.16-.97,.27-1.94,.54-2.91,.82-.53,.12-1.05,.23-1.58,.35-.8,.18-.93,.06-.73-.73,.56-2.29,1.15-4.58,1.71-6.87,.51-2.1,1.01-4.2,1.51-6.3,.36-.96,.55-1.95,.77-2.94,.64-2.51,1.28-5.03,1.92-7.54,.03-.11,.03-.23,.07-.33,.12-.24,.05-.65,.42-.68,.41-.04,.4,.4,.56,.65,.14,.21,.11,.51,.34,.67,.38,1.48,1.03,2.86,1.57,4.28,.35,.97,.72,1.93,1.07,2.89,.24,.65,.56,.71,1.05,.2,.78-.83,1.55-1.67,2.38-2.46,3.2-3.08,6.73-5.74,10.45-8.15,.9-.53,1.81-1.07,2.71-1.6,1.09-.56,2.16-1.13,3.25-1.67,1.32-.65,2.65-1.26,3.98-1.88,.98-.36,1.95-.72,2.92-1.08,1.75-.56,3.5-1.11,5.25-1.66,.1-.02,.19-.04,.29-.06,1.46-.31,2.9-.71,4.39-.88,1.97-.22,3.92-.18,5.88,.12,3.91,.62,7.34,2.3,10.31,4.86,2.08,1.8,3.71,4,4.9,6.51,.56,1.2,1.12,2.37,1.28,3.69Z"/>
        <path class="cls-2" d="M19.08,39.22c-.23,0-.44-.06-.61-.23-.31-.31-.22-.76-.11-1.2,.28-1.14,.57-2.29,.85-3.43,.29-1.14,.57-2.29,.85-3.43,.5-2.05,.99-4.11,1.48-6.16l.03-.14c.31-.85,.49-1.65,.67-2.5l.09-.43,1.92-7.55c.03-.18,.05-.28,.09-.39,.03-.06,.04-.13,.05-.17,.05-.21,.17-.77,.79-.82,.66-.07,.88,.51,.96,.73,.02,.05,.04,.12,.06,.15,.09,.14,.14,.29,.17,.41,.01,.05,.04,.12,.05,.14l.15,.11,.03,.17c.26,1.02,.67,2.02,1.06,2.99,.17,.41,.33,.82,.49,1.24,.19,.54,.39,1.06,.59,1.59,.16,.44,.33,.87,.49,1.31,.03,.07,.05,.12,.07,.16,.04-.03,.09-.07,.15-.14l.36-.38c.65-.7,1.33-1.42,2.04-2.09,2.97-2.86,6.41-5.54,10.52-8.21l2.73-1.61,1.15-.59c.71-.37,1.42-.74,2.14-1.09,1.08-.53,2.17-1.04,3.26-1.54l.73-.34c1.02-.38,1.99-.74,2.96-1.1,1.77-.57,3.52-1.12,5.27-1.67l.34-.08c.4-.08,.81-.18,1.22-.27,1.04-.24,2.11-.49,3.21-.61,2.03-.23,3.99-.19,6.01,.12,3.9,.62,7.45,2.29,10.56,4.97,2.1,1.81,3.79,4.06,5.02,6.68l.05,.1c.55,1.17,1.11,2.38,1.28,3.74l.08,.65-.65-.1c-.93-.14-1.82-.42-2.69-.68-.75-.23-1.46-.45-2.2-.59-.48-.09-.95-.19-1.41-.3l-.48-.11c-.3-.07-.6-.13-.9-.19-.33-.07-.66-.13-.98-.19,0,0-.11-.01-.17-.03-.03,0-.08,0-.12-.02-.17-.02-.39-.05-.62-.07-.18-.02-.35-.04-.51-.04l-.36-.02c-1.91-.21-3.83-.34-5.73-.4-1.78-.06-3.59-.05-5.39,.02h0s-1.13,.06-2.13,.15c-4.58,.41-9.24,1.93-10.55,2.39-3.1,1.07-5.5,2.29-7.09,3.09-.38,.19-.71,.36-1.01,.51-2.68,1.3-5.09,2.99-7.09,4.46-.36,.28-.73,.57-1.11,.86-.48,.37-.96,.74-1.43,1.12-.03,.03-.06,.05-.08,.07,.02,0,.05,.02,.07,.03,1.46,.53,2.92,1.06,4.38,1.6l2.66,1s.21,.08,.31,.11c.32,.08,.99,.26,.98,1-.01,.75-.71,.88-1.01,.93-.1,.02-.26,.05-.3,.08l-.09,.08-.95,.24c-.68,.17-1.37,.34-2.05,.52-5.17,1.38-10.33,2.77-15.49,4.16l-.24,.07c-.89,.25-1.78,.5-2.67,.75l-1.61,.36c-.2,.04-.41,.08-.6,.08Zm6.23-25.16s-.03,.07-.05,.11c0,.1-.02,.17-.03,.24l-2.01,7.95c-.18,.85-.38,1.73-.7,2.58v.08c-.5,2.05-.99,4.11-1.49,6.17-.28,1.15-.57,2.29-.86,3.44-.29,1.14-.57,2.29-.85,3.43-.02,.06-.03,.11-.04,.16,.05,0,.1-.02,.17-.04l1.58-.35c.86-.25,1.75-.5,2.65-.75l.24-.07c5.16-1.39,10.32-2.78,15.5-4.16,.69-.19,1.38-.36,2.07-.53l.73-.18c.19-.13,.41-.18,.6-.22-.18-.05-.4-.11-.59-.24l-2.44-.9c-1.46-.54-2.92-1.07-4.38-1.6-.19-.07-.74-.27-.82-.79-.08-.52,.4-.9,.55-1.03,.47-.38,.96-.75,1.44-1.12,.37-.29,.74-.58,1.11-.87,2.05-1.51,4.51-3.23,7.26-4.57,.3-.14,.63-.31,1-.5,1.61-.82,4.05-2.05,7.22-3.14,1.35-.46,6.1-2.01,10.79-2.44,1.02-.09,2.17-.15,2.17-.15,1.83-.08,3.67-.08,5.47-.02,1.93,.06,3.87,.2,5.78,.41l.31,.02c.14-.01,.36,.02,.57,.04,.24,.02,.48,.05,.71,.08,.1,.01,.14,.02,.18,.03h.1c.33,.07,.67,.14,1,.21,.3,.06,.6,.13,.91,.19l.49,.11c.46,.11,.92,.21,1.38,.3,.79,.15,1.57,.39,2.31,.62,.63,.19,1.23,.38,1.85,.52-.22-.94-.63-1.83-1.07-2.75l-.05-.1c-1.18-2.49-2.78-4.62-4.77-6.34-2.97-2.56-6.36-4.16-10.06-4.74-1.93-.29-3.81-.33-5.75-.12-1.04,.12-2.09,.36-3.1,.59-.41,.1-.83,.19-1.24,.28l-.29,.06c-1.7,.54-3.45,1.09-5.2,1.65-.95,.35-1.92,.71-2.9,1.07l-.69,.32c-1.08,.5-2.17,1.01-3.24,1.54-.71,.35-1.41,.72-2.12,1.08l-1.12,.58-2.68,1.59c-4.04,2.62-7.43,5.26-10.36,8.08-.69,.66-1.36,1.37-2,2.06l-.36,.39c-.14,.15-.57,.59-1.09,.48-.52-.11-.73-.67-.79-.85-.16-.44-.32-.87-.48-1.31-.2-.53-.4-1.06-.59-1.59-.15-.4-.32-.8-.48-1.21-.39-.96-.79-1.94-1.07-2.97-.16-.18-.22-.38-.26-.52-.02-.05-.04-.12-.05-.14-.03-.04-.05-.08-.07-.13Z"/>
      </g>
    </g>
  </g>
</svg>